<svg width="616" height="156" viewBox="0 0 616 156" fill="none" xmlns="http://www.w3.org/2000/svg">
<path d="M3.6875 60H28.6484C40.6797 60 48.1406 53.8281 48.1406 43.9453V43.8672C48.1406 36.4844 42.4766 30.9375 34.625 30.3516V30.1172C40.8359 29.2969 45.5234 24.0234 45.5234 17.8516V17.7734C45.5234 9.10156 38.8438 3.63281 28.2188 3.63281H3.6875V60ZM25.1719 12.3828C30.6797 12.3828 33.9219 14.9609 33.9219 19.4531V19.5312C33.9219 24.4141 30.3672 27.1875 23.7266 27.1875H15.4844V12.3828H25.1719ZM25.1328 35.1953C32.3594 35.1953 36.1094 37.9688 36.1094 43.125V43.2031C36.1094 48.4375 32.3984 51.2109 25.6406 51.2109H15.4844V35.1953H25.1328ZM58.2203 12.7344C61.6578 12.7344 64.3141 10.0391 64.3141 6.79688C64.3141 3.55469 61.6578 0.859375 58.2203 0.859375C54.7828 0.859375 52.1266 3.55469 52.1266 6.79688C52.1266 10.0391 54.7828 12.7344 58.2203 12.7344ZM52.5172 60H63.9234V18.125H52.5172V60ZM69.1984 60H103.769V51.4062H83.4953V51.1719L103.3 25.3516V18.125H69.5109V26.7188H90.2531V26.9141L69.1984 53.5156V60ZM147.912 60.8594C158.459 60.8594 164.983 52.6562 164.983 39.0625V39.0234C164.983 25.3906 158.459 17.2656 147.952 17.2656C141.975 17.2656 137.327 20.3125 135.022 25.3906H134.787V3.63281H123.381V60H134.787V52.8516H135.022C137.287 57.8125 141.897 60.8594 147.912 60.8594ZM144.123 51.4062C138.577 51.4062 134.787 46.6406 134.787 39.0625V39.0234C134.787 31.4844 138.616 26.7188 144.123 26.7188C149.787 26.7188 153.381 31.3672 153.381 39.0234V39.0625C153.381 46.6797 149.787 51.4062 144.123 51.4062ZM175.18 12.7344C178.617 12.7344 181.273 10.0391 181.273 6.79688C181.273 3.55469 178.617 0.859375 175.18 0.859375C171.742 0.859375 169.086 3.55469 169.086 6.79688C169.086 10.0391 171.742 12.7344 175.18 12.7344ZM169.477 60H180.883V18.125H169.477V60ZM187.212 60H198.619V3.63281H187.212V60ZM217.175 60.6641C222.683 60.6641 227.136 58.0469 229.519 53.75H229.753V60H241.159V31.2891C241.159 22.8516 234.167 17.2656 223.347 17.2656C212.292 17.2656 205.652 22.8125 205.027 30.5469L204.988 31.0156H215.417L215.495 30.6641C216.042 27.9688 218.62 25.9766 222.878 25.9766C227.331 25.9766 229.753 28.2812 229.753 31.9922V34.5703L219.402 35.1953C209.011 35.8594 203.113 40.3125 203.113 47.9297V48.0078C203.113 55.3906 208.777 60.6641 217.175 60.6641ZM214.402 47.4219V47.3438C214.402 44.375 216.706 42.5 221.12 42.2266L229.753 41.6797V44.6875C229.753 49.0625 226.003 52.3438 220.886 52.3438C216.941 52.3438 214.402 50.5078 214.402 47.4219ZM246.942 60H258.348V35.9375C258.348 30.4688 261.591 26.7188 266.708 26.7188C271.825 26.7188 274.403 29.8438 274.403 35.3125V60H285.809V32.9688C285.809 23.1641 280.575 17.2656 271.356 17.2656C265.028 17.2656 260.731 20.1953 258.583 25H258.348V18.125H246.942V60ZM305.969 60H317.375V36.0156C317.375 30.5469 320.617 26.7188 325.656 26.7188C330.852 26.7188 333.742 30.1953 333.742 36.0547V60H345.148V33.7109C345.148 23.5938 339.523 17.2656 330.461 17.2656C324.172 17.2656 319.758 20.1562 317.609 25.3516H317.375V3.63281H305.969V60ZM363.353 60.6641C368.861 60.6641 373.314 58.0469 375.697 53.75H375.931V60H387.337V31.2891C387.337 22.8516 380.345 17.2656 369.525 17.2656C358.47 17.2656 351.83 22.8125 351.205 30.5469L351.166 31.0156H361.595L361.673 30.6641C362.22 27.9688 364.798 25.9766 369.056 25.9766C373.509 25.9766 375.931 28.2812 375.931 31.9922V34.5703L365.58 35.1953C355.189 35.8594 349.291 40.3125 349.291 47.9297V48.0078C349.291 55.3906 354.955 60.6641 363.353 60.6641ZM360.58 47.4219V47.3438C360.58 44.375 362.884 42.5 367.298 42.2266L375.931 41.6797V44.6875C375.931 49.0625 372.181 52.3438 367.064 52.3438C363.119 52.3438 360.58 50.5078 360.58 47.4219ZM393.12 60H404.527V36.5625C404.527 30.4688 407.808 27.1094 413.433 27.1094C415.073 27.1094 416.636 27.3438 417.573 27.7344V17.6953C416.714 17.4609 415.542 17.2656 414.292 17.2656C409.409 17.2656 406.011 20.2734 404.761 25.4297H404.527V18.125H393.12V60ZM435.194 60H446.6V3.63281H435.194V60ZM465.156 60.6641C470.664 60.6641 475.117 58.0469 477.5 53.75H477.734V60H489.141V31.2891C489.141 22.8516 482.148 17.2656 471.328 17.2656C460.273 17.2656 453.633 22.8125 453.008 30.5469L452.969 31.0156H463.398L463.477 30.6641C464.023 27.9688 466.602 25.9766 470.859 25.9766C475.312 25.9766 477.734 28.2812 477.734 31.9922V34.5703L467.383 35.1953C456.992 35.8594 451.094 40.3125 451.094 47.9297V48.0078C451.094 55.3906 456.758 60.6641 465.156 60.6641ZM462.383 47.4219V47.3438C462.383 44.375 464.688 42.5 469.102 42.2266L477.734 41.6797V44.6875C477.734 49.0625 473.984 52.3438 468.867 52.3438C464.922 52.3438 462.383 50.5078 462.383 47.4219ZM495.197 60H506.603V36.0156C506.603 30.5469 509.845 26.7188 514.884 26.7188C520.08 26.7188 522.97 30.1953 522.97 36.0547V60H534.377V33.7109C534.377 23.5938 528.752 17.2656 519.689 17.2656C513.4 17.2656 508.986 20.1562 506.837 25.3516H506.603V3.63281H495.197V60ZM539.105 60H573.675V51.4062H553.402V51.1719L573.206 25.3516V18.125H539.417V26.7188H560.159V26.9141L539.105 53.5156V60ZM591.216 60.6641C596.723 60.6641 601.177 58.0469 603.559 53.75H603.794V60H615.2V31.2891C615.2 22.8516 608.208 17.2656 597.388 17.2656C586.333 17.2656 579.692 22.8125 579.067 30.5469L579.028 31.0156H589.458L589.536 30.6641C590.083 27.9688 592.661 25.9766 596.919 25.9766C601.372 25.9766 603.794 28.2812 603.794 31.9922V34.5703L593.442 35.1953C583.052 35.8594 577.153 40.3125 577.153 47.9297V48.0078C577.153 55.3906 582.817 60.6641 591.216 60.6641ZM588.442 47.4219V47.3438C588.442 44.375 590.747 42.5 595.161 42.2266L603.794 41.6797V44.6875C603.794 49.0625 600.044 52.3438 594.927 52.3438C590.981 52.3438 588.442 50.5078 588.442 47.4219ZM0.875 137.07H66.0703V127.109H0.875V137.07ZM84.275 155.859C90.6031 155.859 94.9 152.891 97.0484 148.086H97.2828V155H108.689V113.125H97.2828V137.188C97.2828 142.656 94.0406 146.406 88.9234 146.406C83.8063 146.406 81.2281 143.242 81.2281 137.773V113.125H69.8219V140.156C69.8219 149.961 75.0563 155.859 84.275 155.859ZM114.511 155H125.917V130.938C125.917 125.469 129.159 121.719 134.277 121.719C139.394 121.719 141.972 124.844 141.972 130.312V155H153.378V127.969C153.378 118.164 148.144 112.266 138.925 112.266C132.597 112.266 128.3 115.195 126.152 120H125.917V113.125H114.511V155ZM173.262 155.859C179.591 155.859 183.887 152.891 186.036 148.086H186.27V155H197.677V113.125H186.27V137.188C186.27 142.656 183.028 146.406 177.911 146.406C172.794 146.406 170.216 143.242 170.216 137.773V113.125H158.809V140.156C158.809 149.961 164.044 155.859 173.262 155.859ZM203.498 155H214.905V129.727C214.905 125 217.834 121.719 222.17 121.719C226.389 121.719 228.928 124.375 228.928 128.867V155H239.905V129.531C239.905 124.883 242.756 121.719 247.092 121.719C251.506 121.719 253.928 124.375 253.928 129.219V155H265.334V126.367C265.334 117.93 259.827 112.266 251.623 112.266C245.491 112.266 240.491 115.625 238.616 120.898H238.381C236.975 115.391 232.717 112.266 226.858 112.266C221.233 112.266 216.858 115.391 215.139 120.156H214.905V113.125H203.498V155ZM271.234 155H282.641V98.6328H271.234V155ZM294.673 107.734C298.111 107.734 300.767 105.039 300.767 101.797C300.767 98.5547 298.111 95.8594 294.673 95.8594C291.236 95.8594 288.58 98.5547 288.58 101.797C288.58 105.039 291.236 107.734 294.673 107.734ZM288.97 155H300.377V113.125H288.97V155Z" fill="black"/>
</svg>
