<svg width="139" height="103" viewBox="0 0 139 103" fill="none" xmlns="http://www.w3.org/2000/svg">
<path d="M72.3076 40.3581C72.167 41.5612 71.7217 42.4909 70.9717 43.1471C70.2269 43.7982 69.2347 44.1237 67.9951 44.1237C66.6514 44.1237 65.5732 43.6419 64.7607 42.6784C63.9535 41.7148 63.5498 40.4258 63.5498 38.8112V37.7174C63.5498 36.6601 63.7373 35.7305 64.1123 34.9284C64.4925 34.1263 65.029 33.5117 65.7217 33.0846C66.4144 32.6523 67.2165 32.4362 68.1279 32.4362C69.3363 32.4362 70.305 32.7747 71.0342 33.4518C71.7633 34.1237 72.1878 35.056 72.3076 36.2487H70.7998C70.6696 35.3424 70.3857 34.6862 69.9482 34.2799C69.516 33.8737 68.9092 33.6706 68.1279 33.6706C67.1696 33.6706 66.417 34.0247 65.8701 34.7331C65.3285 35.4414 65.0576 36.4492 65.0576 37.7565V38.8581C65.0576 40.0924 65.3154 41.0742 65.8311 41.8034C66.3467 42.5325 67.068 42.8971 67.9951 42.8971C68.8285 42.8971 69.4665 42.7096 69.9092 42.3346C70.3571 41.9544 70.654 41.2956 70.7998 40.3581H72.3076ZM73.7529 39.6628C73.7529 38.8346 73.9144 38.0898 74.2373 37.4284C74.5654 36.7669 75.0186 36.2565 75.5967 35.8971C76.18 35.5378 76.8441 35.3581 77.5889 35.3581C78.7399 35.3581 79.6696 35.7565 80.3779 36.5534C81.0915 37.3503 81.4482 38.4101 81.4482 39.7331V39.8346C81.4482 40.6575 81.2894 41.3971 80.9717 42.0534C80.6592 42.7044 80.2087 43.2122 79.6201 43.5768C79.0368 43.9414 78.3649 44.1237 77.6045 44.1237C76.4587 44.1237 75.529 43.7253 74.8154 42.9284C74.1071 42.1315 73.7529 41.0768 73.7529 39.7643V39.6628ZM75.2061 39.8346C75.2061 40.7721 75.4222 41.5247 75.8545 42.0924C76.292 42.6601 76.8753 42.944 77.6045 42.944C78.3389 42.944 78.9222 42.6575 79.3545 42.0846C79.7868 41.5065 80.0029 40.6992 80.0029 39.6628C80.0029 38.7357 79.7816 37.9857 79.3389 37.4128C78.9014 36.8346 78.318 36.5456 77.5889 36.5456C76.8753 36.5456 76.2998 36.8294 75.8623 37.3971C75.4248 37.9648 75.2061 38.7773 75.2061 39.8346ZM88.4795 43.1315C87.917 43.793 87.0915 44.1237 86.0029 44.1237C85.1019 44.1237 84.4144 43.8633 83.9404 43.3424C83.4717 42.8164 83.2347 42.0404 83.2295 41.0143V35.5143H84.6748V40.9753C84.6748 42.2565 85.1956 42.8971 86.2373 42.8971C87.3415 42.8971 88.0758 42.4857 88.4404 41.6628V35.5143H89.8857V43.9674H88.5107L88.4795 43.1315ZM96.1748 36.8112C95.9561 36.7747 95.7191 36.7565 95.4639 36.7565C94.516 36.7565 93.8727 37.1601 93.5342 37.9674V43.9674H92.0889V35.5143H93.4951L93.5186 36.4909C93.9925 35.7357 94.6644 35.3581 95.5342 35.3581C95.8154 35.3581 96.029 35.3945 96.1748 35.4674V36.8112ZM102.433 41.7253C102.433 41.3346 102.284 41.0325 101.987 40.819C101.696 40.6003 101.183 40.4128 100.448 40.2565C99.7191 40.1003 99.1383 39.9128 98.7061 39.694C98.279 39.4753 97.9613 39.2148 97.7529 38.9128C97.5498 38.6107 97.4482 38.2513 97.4482 37.8346C97.4482 37.1419 97.7399 36.556 98.3232 36.0768C98.9118 35.5976 99.6618 35.3581 100.573 35.3581C101.532 35.3581 102.308 35.6055 102.901 36.1003C103.5 36.595 103.8 37.2279 103.8 37.9987H102.347C102.347 37.6029 102.177 37.2617 101.839 36.9753C101.506 36.6888 101.084 36.5456 100.573 36.5456C100.047 36.5456 99.6357 36.6601 99.3389 36.8893C99.042 37.1185 98.8936 37.418 98.8936 37.7878C98.8936 38.1367 99.0316 38.3997 99.3076 38.5768C99.5837 38.7539 100.081 38.9232 100.8 39.0846C101.524 39.2461 102.11 39.4388 102.558 39.6628C103.006 39.8867 103.336 40.1575 103.55 40.4753C103.769 40.7878 103.878 41.1706 103.878 41.6237C103.878 42.3789 103.576 42.9857 102.972 43.444C102.368 43.8971 101.584 44.1237 100.62 44.1237C99.943 44.1237 99.3441 44.0039 98.8232 43.7643C98.3024 43.5247 97.8936 43.1914 97.5967 42.7643C97.305 42.332 97.1592 41.8659 97.1592 41.3659H98.6045C98.6305 41.8503 98.8232 42.2357 99.1826 42.5221C99.5472 42.8034 100.026 42.944 100.62 42.944C101.167 42.944 101.604 42.8346 101.933 42.6159C102.266 42.3919 102.433 42.095 102.433 41.7253ZM109.269 44.1237C108.123 44.1237 107.19 43.7487 106.472 42.9987C105.753 42.2435 105.394 41.2357 105.394 39.9753V39.7096C105.394 38.8711 105.552 38.1237 105.87 37.4674C106.193 36.806 106.641 36.2904 107.214 35.9206C107.792 35.5456 108.417 35.3581 109.089 35.3581C110.188 35.3581 111.042 35.72 111.651 36.444C112.261 37.168 112.565 38.2044 112.565 39.5534V40.1549H106.839C106.86 40.9883 107.102 41.6628 107.565 42.1784C108.034 42.6888 108.628 42.944 109.347 42.944C109.857 42.944 110.289 42.8398 110.644 42.6315C110.998 42.4232 111.308 42.1471 111.573 41.8034L112.456 42.4909C111.748 43.5794 110.685 44.1237 109.269 44.1237ZM109.089 36.5456C108.506 36.5456 108.016 36.7591 107.62 37.1862C107.224 37.6081 106.979 38.2018 106.886 38.9674H111.12V38.8581C111.078 38.1237 110.881 37.556 110.526 37.1549C110.172 36.7487 109.693 36.5456 109.089 36.5456ZM119.167 41.7253C119.167 41.3346 119.019 41.0325 118.722 40.819C118.43 40.6003 117.917 40.4128 117.183 40.2565C116.453 40.1003 115.873 39.9128 115.44 39.694C115.013 39.4753 114.696 39.2148 114.487 38.9128C114.284 38.6107 114.183 38.2513 114.183 37.8346C114.183 37.1419 114.474 36.556 115.058 36.0768C115.646 35.5976 116.396 35.3581 117.308 35.3581C118.266 35.3581 119.042 35.6055 119.636 36.1003C120.235 36.595 120.534 37.2279 120.534 37.9987H119.081C119.081 37.6029 118.912 37.2617 118.573 36.9753C118.24 36.6888 117.818 36.5456 117.308 36.5456C116.782 36.5456 116.37 36.6601 116.073 36.8893C115.776 37.1185 115.628 37.418 115.628 37.7878C115.628 38.1367 115.766 38.3997 116.042 38.5768C116.318 38.7539 116.815 38.9232 117.534 39.0846C118.258 39.2461 118.844 39.4388 119.292 39.6628C119.74 39.8867 120.071 40.1575 120.284 40.4753C120.503 40.7878 120.612 41.1706 120.612 41.6237C120.612 42.3789 120.31 42.9857 119.706 43.444C119.102 43.8971 118.318 44.1237 117.354 44.1237C116.677 44.1237 116.078 44.0039 115.558 43.7643C115.037 43.5247 114.628 43.1914 114.331 42.7643C114.039 42.332 113.894 41.8659 113.894 41.3659H115.339C115.365 41.8503 115.558 42.2357 115.917 42.5221C116.282 42.8034 116.761 42.944 117.354 42.944C117.901 42.944 118.339 42.8346 118.667 42.6159C119 42.3919 119.167 42.095 119.167 41.7253ZM67.1045 66.944C67.6201 66.944 68.0706 66.7878 68.4561 66.4753C68.8415 66.1628 69.055 65.7721 69.0967 65.3034H70.4639C70.4378 65.7878 70.2712 66.2487 69.9639 66.6862C69.6566 67.1237 69.2451 67.4726 68.7295 67.7331C68.2191 67.9935 67.6774 68.1237 67.1045 68.1237C65.9535 68.1237 65.0368 67.7409 64.3545 66.9753C63.6774 66.2044 63.3389 65.1523 63.3389 63.819V63.5768C63.3389 62.7539 63.4899 62.0221 63.792 61.3815C64.0941 60.7409 64.5264 60.2435 65.0889 59.8893C65.6566 59.5351 66.3258 59.3581 67.0967 59.3581C68.0446 59.3581 68.8311 59.6419 69.4561 60.2096C70.0863 60.7773 70.4222 61.5143 70.4639 62.4206H69.0967C69.055 61.8737 68.8467 61.4258 68.4717 61.0768C68.1019 60.7226 67.6436 60.5456 67.0967 60.5456C66.3623 60.5456 65.792 60.8112 65.3857 61.3424C64.9847 61.8685 64.7842 62.6315 64.7842 63.6315V63.9049C64.7842 64.8789 64.9847 65.6289 65.3857 66.1549C65.7868 66.681 66.3597 66.944 67.1045 66.944ZM71.7061 63.6628C71.7061 62.8346 71.8675 62.0898 72.1904 61.4284C72.5186 60.7669 72.9717 60.2565 73.5498 59.8971C74.1331 59.5378 74.7972 59.3581 75.542 59.3581C76.693 59.3581 77.6227 59.7565 78.3311 60.5534C79.0446 61.3503 79.4014 62.4101 79.4014 63.7331V63.8346C79.4014 64.6575 79.2425 65.3971 78.9248 66.0534C78.6123 66.7044 78.1618 67.2122 77.5732 67.5768C76.9899 67.9414 76.318 68.1237 75.5576 68.1237C74.4118 68.1237 73.4821 67.7253 72.7686 66.9284C72.0602 66.1315 71.7061 65.0768 71.7061 63.7643V63.6628ZM73.1592 63.8346C73.1592 64.7721 73.3753 65.5247 73.8076 66.0924C74.2451 66.6601 74.8285 66.944 75.5576 66.944C76.292 66.944 76.8753 66.6575 77.3076 66.0846C77.7399 65.5065 77.9561 64.6992 77.9561 63.6628C77.9561 62.7357 77.7347 61.9857 77.292 61.4128C76.8545 60.8346 76.2712 60.5456 75.542 60.5456C74.8285 60.5456 74.2529 60.8294 73.8154 61.3971C73.3779 61.9648 73.1592 62.7773 73.1592 63.8346ZM82.5732 59.5143L82.6123 60.4518C83.2321 59.7226 84.068 59.3581 85.1201 59.3581C86.3024 59.3581 87.1071 59.8112 87.5342 60.7174C87.8154 60.3112 88.18 59.9831 88.6279 59.7331C89.0811 59.4831 89.6149 59.3581 90.2295 59.3581C92.0837 59.3581 93.0264 60.3398 93.0576 62.3034V67.9674H91.6123V62.3893C91.6123 61.7851 91.4743 61.3346 91.1982 61.0378C90.9222 60.7357 90.4587 60.5846 89.8076 60.5846C89.2712 60.5846 88.8258 60.7461 88.4717 61.069C88.1175 61.3867 87.9118 61.8164 87.8545 62.3581V67.9674H86.4014V62.4284C86.4014 61.1992 85.7998 60.5846 84.5967 60.5846C83.6488 60.5846 83.0003 60.9883 82.6514 61.7956V67.9674H81.2061V59.5143H82.5732ZM102.386 63.8346C102.386 65.1211 102.091 66.1575 101.503 66.944C100.914 67.7305 100.118 68.1237 99.1123 68.1237C98.0863 68.1237 97.279 67.7982 96.6904 67.1471V71.2174H95.2451V59.5143H96.5654L96.6357 60.4518C97.2243 59.7226 98.042 59.3581 99.0889 59.3581C100.104 59.3581 100.907 59.7409 101.495 60.5065C102.089 61.2721 102.386 62.3372 102.386 63.7018V63.8346ZM100.94 63.6706C100.94 62.7174 100.737 61.9648 100.331 61.4128C99.9248 60.8607 99.3675 60.5846 98.6592 60.5846C97.7842 60.5846 97.1279 60.9726 96.6904 61.7487V65.7878C97.1227 66.5586 97.7842 66.944 98.6748 66.944C99.3675 66.944 99.917 66.6706 100.323 66.1237C100.735 65.5716 100.94 64.7539 100.94 63.6706ZM105.8 67.9674H104.354V55.9674H105.8V67.9674ZM111.628 68.1237C110.482 68.1237 109.55 67.7487 108.831 66.9987C108.112 66.2435 107.753 65.2357 107.753 63.9753V63.7096C107.753 62.8711 107.912 62.1237 108.229 61.4674C108.552 60.806 109 60.2904 109.573 59.9206C110.151 59.5456 110.776 59.3581 111.448 59.3581C112.547 59.3581 113.401 59.72 114.011 60.444C114.62 61.168 114.925 62.2044 114.925 63.5534V64.1549H109.198C109.219 64.9883 109.461 65.6628 109.925 66.1784C110.394 66.6888 110.987 66.944 111.706 66.944C112.216 66.944 112.649 66.8398 113.003 66.6315C113.357 66.4232 113.667 66.1471 113.933 65.8034L114.815 66.4909C114.107 67.5794 113.045 68.1237 111.628 68.1237ZM111.448 60.5456C110.865 60.5456 110.375 60.7591 109.979 61.1862C109.584 61.6081 109.339 62.2018 109.245 62.9674H113.479V62.8581C113.438 62.1237 113.24 61.556 112.886 61.1549C112.532 60.7487 112.052 60.5456 111.448 60.5456ZM118.565 57.4674V59.5143H120.144V60.6315H118.565V65.8737C118.565 66.2122 118.636 66.4674 118.776 66.6393C118.917 66.806 119.157 66.8893 119.495 66.8893C119.662 66.8893 119.891 66.8581 120.183 66.7956V67.9674C119.802 68.0716 119.433 68.1237 119.073 68.1237C118.427 68.1237 117.94 67.9284 117.612 67.5378C117.284 67.1471 117.12 66.5924 117.12 65.8737V60.6315H115.581V59.5143H117.12V57.4674H118.565ZM125.347 68.1237C124.201 68.1237 123.269 67.7487 122.55 66.9987C121.831 66.2435 121.472 65.2357 121.472 63.9753V63.7096C121.472 62.8711 121.631 62.1237 121.948 61.4674C122.271 60.806 122.719 60.2904 123.292 59.9206C123.87 59.5456 124.495 59.3581 125.167 59.3581C126.266 59.3581 127.12 59.72 127.729 60.444C128.339 61.168 128.644 62.2044 128.644 63.5534V64.1549H122.917C122.938 64.9883 123.18 65.6628 123.644 66.1784C124.112 66.6888 124.706 66.944 125.425 66.944C125.935 66.944 126.368 66.8398 126.722 66.6315C127.076 66.4232 127.386 66.1471 127.651 65.8034L128.534 66.4909C127.826 67.5794 126.763 68.1237 125.347 68.1237ZM125.167 60.5456C124.584 60.5456 124.094 60.7591 123.698 61.1862C123.302 61.6081 123.058 62.2018 122.964 62.9674H127.198V62.8581C127.157 62.1237 126.959 61.556 126.604 61.1549C126.25 60.7487 125.771 60.5456 125.167 60.5456ZM129.972 63.6706C129.972 62.3737 130.279 61.332 130.894 60.5456C131.508 59.7539 132.313 59.3581 133.308 59.3581C134.297 59.3581 135.081 59.6966 135.659 60.3737V55.9674H137.104V67.9674H135.776L135.706 67.0612C135.128 67.7695 134.323 68.1237 133.292 68.1237C132.313 68.1237 131.513 67.7226 130.894 66.9206C130.279 66.1185 129.972 65.0716 129.972 63.7799V63.6706ZM131.417 63.8346C131.417 64.793 131.615 65.543 132.011 66.0846C132.407 66.6263 132.953 66.8971 133.651 66.8971C134.568 66.8971 135.237 66.4857 135.659 65.6628V61.7799C135.227 60.9831 134.563 60.5846 133.667 60.5846C132.959 60.5846 132.407 60.8581 132.011 61.4049C131.615 61.9518 131.417 62.7617 131.417 63.8346Z" fill="black"/>
<path d="M10.3922 39.4234L3.99217 41.4074C3.35217 40.9808 2.71217 40.3834 2.07217 39.6154C1.43217 38.8474 1.11217 37.7808 1.11217 36.4154C1.11217 33.8554 2.6695 32.0634 5.78417 31.0394L12.9522 28.6074H15.3202C17.1548 28.6074 18.6055 29.1408 19.6722 30.2074C20.7388 31.2741 21.2722 32.7248 21.2722 34.5594V67.9034C20.8028 67.9888 20.0988 68.0954 19.1602 68.2234C18.2642 68.3941 17.3468 68.4794 16.4082 68.4794C15.4695 68.4794 14.6162 68.4154 13.8482 68.2874C13.1228 68.1594 12.5042 67.9034 11.9922 67.5194C11.4802 67.1354 11.0748 66.6234 10.7762 65.9834C10.5202 65.3008 10.3922 64.4261 10.3922 63.3594V39.4234ZM35.5172 39.4234L29.1172 41.4074C28.4772 40.9808 27.8372 40.3834 27.1972 39.6154C26.5572 38.8474 26.2372 37.7808 26.2372 36.4154C26.2372 33.8554 27.7945 32.0634 30.9092 31.0394L38.0772 28.6074H40.4452C42.2798 28.6074 43.7305 29.1408 44.7972 30.2074C45.8638 31.2741 46.3972 32.7248 46.3972 34.5594V67.9034C45.9278 67.9888 45.2238 68.0954 44.2852 68.2234C43.3892 68.3941 42.4718 68.4794 41.5332 68.4794C40.5945 68.4794 39.7412 68.4154 38.9732 68.2874C38.2478 68.1594 37.6292 67.9034 37.1172 67.5194C36.6052 67.1354 36.1998 66.6234 35.9012 65.9834C35.6452 65.3008 35.5172 64.4261 35.5172 63.3594V39.4234Z" fill="black"/>
</svg>
