<svg width="134" height="75" viewBox="0 0 134 75" fill="none" xmlns="http://www.w3.org/2000/svg">
<path d="M63.52 40.3581C63.3794 41.5612 62.9341 42.4909 62.1841 43.1471C61.4393 43.7982 60.4471 44.1237 59.2075 44.1237C57.8638 44.1237 56.7856 43.6419 55.9731 42.6784C55.1659 41.7148 54.7622 40.4258 54.7622 38.8112V37.7174C54.7622 36.6601 54.9497 35.7305 55.3247 34.9284C55.7049 34.1263 56.2414 33.5117 56.9341 33.0846C57.6268 32.6523 58.4289 32.4362 59.3403 32.4362C60.5487 32.4362 61.5174 32.7747 62.2466 33.4518C62.9757 34.1237 63.4002 35.056 63.52 36.2487H62.0122C61.882 35.3424 61.5981 34.6862 61.1606 34.2799C60.7284 33.8737 60.1216 33.6706 59.3403 33.6706C58.382 33.6706 57.6294 34.0247 57.0825 34.7331C56.5409 35.4414 56.27 36.4492 56.27 37.7565V38.8581C56.27 40.0924 56.5278 41.0742 57.0435 41.8034C57.5591 42.5325 58.2804 42.8971 59.2075 42.8971C60.0409 42.8971 60.6789 42.7096 61.1216 42.3346C61.5695 41.9544 61.8664 41.2956 62.0122 40.3581H63.52ZM64.9653 39.6628C64.9653 38.8346 65.1268 38.0898 65.4497 37.4284C65.7778 36.7669 66.231 36.2565 66.8091 35.8971C67.3924 35.5378 68.0565 35.3581 68.8013 35.3581C69.9523 35.3581 70.882 35.7565 71.5903 36.5534C72.3039 37.3503 72.6606 38.4101 72.6606 39.7331V39.8346C72.6606 40.6575 72.5018 41.3971 72.1841 42.0534C71.8716 42.7044 71.4211 43.2122 70.8325 43.5768C70.2492 43.9414 69.5773 44.1237 68.8169 44.1237C67.6711 44.1237 66.7414 43.7253 66.0278 42.9284C65.3195 42.1315 64.9653 41.0768 64.9653 39.7643V39.6628ZM66.4185 39.8346C66.4185 40.7721 66.6346 41.5247 67.0669 42.0924C67.5044 42.6601 68.0877 42.944 68.8169 42.944C69.5513 42.944 70.1346 42.6575 70.5669 42.0846C70.9992 41.5065 71.2153 40.6992 71.2153 39.6628C71.2153 38.7357 70.994 37.9857 70.5513 37.4128C70.1138 36.8346 69.5304 36.5456 68.8013 36.5456C68.0877 36.5456 67.5122 36.8294 67.0747 37.3971C66.6372 37.9648 66.4185 38.7773 66.4185 39.8346ZM79.6919 43.1315C79.1294 43.793 78.3039 44.1237 77.2153 44.1237C76.3143 44.1237 75.6268 43.8633 75.1528 43.3424C74.6841 42.8164 74.4471 42.0404 74.4419 41.0143V35.5143H75.8872V40.9753C75.8872 42.2565 76.408 42.8971 77.4497 42.8971C78.5539 42.8971 79.2882 42.4857 79.6528 41.6628V35.5143H81.0981V43.9674H79.7231L79.6919 43.1315ZM87.3872 36.8112C87.1685 36.7747 86.9315 36.7565 86.6763 36.7565C85.7284 36.7565 85.0851 37.1601 84.7466 37.9674V43.9674H83.3013V35.5143H84.7075L84.731 36.4909C85.2049 35.7357 85.8768 35.3581 86.7466 35.3581C87.0278 35.3581 87.2414 35.3945 87.3872 35.4674V36.8112ZM93.645 41.7253C93.645 41.3346 93.4966 41.0325 93.1997 40.819C92.908 40.6003 92.395 40.4128 91.6606 40.2565C90.9315 40.1003 90.3507 39.9128 89.9185 39.694C89.4914 39.4753 89.1737 39.2148 88.9653 38.9128C88.7622 38.6107 88.6606 38.2513 88.6606 37.8346C88.6606 37.1419 88.9523 36.556 89.5356 36.0768C90.1242 35.5976 90.8742 35.3581 91.7856 35.3581C92.744 35.3581 93.52 35.6055 94.1138 36.1003C94.7127 36.595 95.0122 37.2279 95.0122 37.9987H93.5591C93.5591 37.6029 93.3898 37.2617 93.0513 36.9753C92.7179 36.6888 92.2961 36.5456 91.7856 36.5456C91.2596 36.5456 90.8481 36.6601 90.5513 36.8893C90.2544 37.1185 90.106 37.418 90.106 37.7878C90.106 38.1367 90.244 38.3997 90.52 38.5768C90.7961 38.7539 91.2935 38.9232 92.0122 39.0846C92.7362 39.2461 93.3221 39.4388 93.77 39.6628C94.2179 39.8867 94.5487 40.1575 94.7622 40.4753C94.981 40.7878 95.0903 41.1706 95.0903 41.6237C95.0903 42.3789 94.7882 42.9857 94.1841 43.444C93.5799 43.8971 92.7961 44.1237 91.8325 44.1237C91.1554 44.1237 90.5565 44.0039 90.0356 43.7643C89.5148 43.5247 89.106 43.1914 88.8091 42.7643C88.5174 42.332 88.3716 41.8659 88.3716 41.3659H89.8169C89.8429 41.8503 90.0356 42.2357 90.395 42.5221C90.7596 42.8034 91.2388 42.944 91.8325 42.944C92.3794 42.944 92.8169 42.8346 93.145 42.6159C93.4784 42.3919 93.645 42.095 93.645 41.7253ZM100.481 44.1237C99.3351 44.1237 98.4028 43.7487 97.6841 42.9987C96.9653 42.2435 96.606 41.2357 96.606 39.9753V39.7096C96.606 38.8711 96.7648 38.1237 97.0825 37.4674C97.4054 36.806 97.8534 36.2904 98.4263 35.9206C99.0044 35.5456 99.6294 35.3581 100.301 35.3581C101.4 35.3581 102.254 35.72 102.864 36.444C103.473 37.168 103.778 38.2044 103.778 39.5534V40.1549H98.0513C98.0721 40.9883 98.3143 41.6628 98.7778 42.1784C99.2466 42.6888 99.8403 42.944 100.559 42.944C101.069 42.944 101.502 42.8398 101.856 42.6315C102.21 42.4232 102.52 42.1471 102.786 41.8034L103.668 42.4909C102.96 43.5794 101.898 44.1237 100.481 44.1237ZM100.301 36.5456C99.7179 36.5456 99.2284 36.7591 98.8325 37.1862C98.4367 37.6081 98.1919 38.2018 98.0981 38.9674H102.333V38.8581C102.291 38.1237 102.093 37.556 101.739 37.1549C101.385 36.7487 100.905 36.5456 100.301 36.5456ZM110.379 41.7253C110.379 41.3346 110.231 41.0325 109.934 40.819C109.642 40.6003 109.129 40.4128 108.395 40.2565C107.666 40.1003 107.085 39.9128 106.653 39.694C106.226 39.4753 105.908 39.2148 105.7 38.9128C105.497 38.6107 105.395 38.2513 105.395 37.8346C105.395 37.1419 105.687 36.556 106.27 36.0768C106.859 35.5976 107.609 35.3581 108.52 35.3581C109.478 35.3581 110.254 35.6055 110.848 36.1003C111.447 36.595 111.747 37.2279 111.747 37.9987H110.293C110.293 37.6029 110.124 37.2617 109.786 36.9753C109.452 36.6888 109.03 36.5456 108.52 36.5456C107.994 36.5456 107.583 36.6601 107.286 36.8893C106.989 37.1185 106.84 37.418 106.84 37.7878C106.84 38.1367 106.978 38.3997 107.254 38.5768C107.53 38.7539 108.028 38.9232 108.747 39.0846C109.471 39.2461 110.056 39.4388 110.504 39.6628C110.952 39.8867 111.283 40.1575 111.497 40.4753C111.715 40.7878 111.825 41.1706 111.825 41.6237C111.825 42.3789 111.523 42.9857 110.918 43.444C110.314 43.8971 109.53 44.1237 108.567 44.1237C107.89 44.1237 107.291 44.0039 106.77 43.7643C106.249 43.5247 105.84 43.1914 105.543 42.7643C105.252 42.332 105.106 41.8659 105.106 41.3659H106.551C106.577 41.8503 106.77 42.2357 107.129 42.5221C107.494 42.8034 107.973 42.944 108.567 42.944C109.114 42.944 109.551 42.8346 109.879 42.6159C110.213 42.3919 110.379 42.095 110.379 41.7253ZM56.4966 67.9674H55.0513V59.5143H56.4966V67.9674ZM54.9341 57.2721C54.9341 57.0378 55.0044 56.8398 55.145 56.6784C55.2909 56.5169 55.5044 56.4362 55.7856 56.4362C56.0669 56.4362 56.2804 56.5169 56.4263 56.6784C56.5721 56.8398 56.645 57.0378 56.645 57.2721C56.645 57.5065 56.5721 57.7018 56.4263 57.8581C56.2804 58.0143 56.0669 58.0924 55.7856 58.0924C55.5044 58.0924 55.2909 58.0143 55.145 57.8581C55.0044 57.7018 54.9341 57.5065 54.9341 57.2721ZM60.1841 59.5143L60.231 60.5768C60.8768 59.7643 61.7205 59.3581 62.7622 59.3581C64.5487 59.3581 65.4497 60.3659 65.4653 62.3815V67.9674H64.02V62.3737C64.0148 61.7643 63.8742 61.3138 63.5981 61.0221C63.3273 60.7305 62.9028 60.5846 62.3247 60.5846C61.856 60.5846 61.4445 60.7096 61.0903 60.9596C60.7362 61.2096 60.4601 61.5378 60.2622 61.944V67.9674H58.8169V59.5143H60.1841ZM78.7544 63.8346C78.7544 65.1211 78.4601 66.1575 77.8716 66.944C77.283 67.7305 76.4862 68.1237 75.481 68.1237C74.4549 68.1237 73.6476 67.7982 73.0591 67.1471V71.2174H71.6138V59.5143H72.9341L73.0044 60.4518C73.5929 59.7226 74.4106 59.3581 75.4575 59.3581C76.4731 59.3581 77.2752 59.7409 77.8638 60.5065C78.4575 61.2721 78.7544 62.3372 78.7544 63.7018V63.8346ZM77.3091 63.6706C77.3091 62.7174 77.106 61.9648 76.6997 61.4128C76.2935 60.8607 75.7362 60.5846 75.0278 60.5846C74.1528 60.5846 73.4966 60.9726 73.0591 61.7487V65.7878C73.4914 66.5586 74.1528 66.944 75.0435 66.944C75.7362 66.944 76.2856 66.6706 76.6919 66.1237C77.1034 65.5716 77.3091 64.7539 77.3091 63.6706ZM84.6841 60.8112C84.4653 60.7747 84.2284 60.7565 83.9731 60.7565C83.0252 60.7565 82.382 61.1601 82.0435 61.9674V67.9674H80.5981V59.5143H82.0044L82.0278 60.4909C82.5018 59.7357 83.1737 59.3581 84.0435 59.3581C84.3247 59.3581 84.5382 59.3945 84.6841 59.4674V60.8112ZM85.481 63.6628C85.481 62.8346 85.6424 62.0898 85.9653 61.4284C86.2935 60.7669 86.7466 60.2565 87.3247 59.8971C87.908 59.5378 88.5721 59.3581 89.3169 59.3581C90.4679 59.3581 91.3976 59.7565 92.106 60.5534C92.8195 61.3503 93.1763 62.4101 93.1763 63.7331V63.8346C93.1763 64.6575 93.0174 65.3971 92.6997 66.0534C92.3872 66.7044 91.9367 67.2122 91.3481 67.5768C90.7648 67.9414 90.0929 68.1237 89.3325 68.1237C88.1867 68.1237 87.257 67.7253 86.5435 66.9284C85.8351 66.1315 85.481 65.0768 85.481 63.7643V63.6628ZM86.9341 63.8346C86.9341 64.7721 87.1502 65.5247 87.5825 66.0924C88.02 66.6601 88.6034 66.944 89.3325 66.944C90.0669 66.944 90.6502 66.6575 91.0825 66.0846C91.5148 65.5065 91.731 64.6992 91.731 63.6628C91.731 62.7357 91.5096 61.9857 91.0669 61.4128C90.6294 60.8346 90.0461 60.5456 89.3169 60.5456C88.6034 60.5456 88.0278 60.8294 87.5903 61.3971C87.1528 61.9648 86.9341 62.7773 86.9341 63.8346ZM94.645 63.6706C94.645 62.3529 94.9497 61.306 95.5591 60.5299C96.1685 59.7487 96.9757 59.3581 97.981 59.3581C99.0122 59.3581 99.8169 59.7226 100.395 60.4518L100.465 59.5143H101.786V67.7643C101.786 68.8581 101.46 69.72 100.809 70.3503C100.163 70.9805 99.2935 71.2956 98.1997 71.2956C97.5903 71.2956 96.994 71.1654 96.4106 70.9049C95.8273 70.6445 95.382 70.2878 95.0747 69.8346L95.8247 68.9674C96.4445 69.7331 97.2023 70.1159 98.0981 70.1159C98.8013 70.1159 99.3481 69.918 99.7388 69.5221C100.135 69.1263 100.333 68.569 100.333 67.8503V67.1237C99.7544 67.7904 98.9653 68.1237 97.9653 68.1237C96.9757 68.1237 96.1737 67.7253 95.5591 66.9284C94.9497 66.1315 94.645 65.0456 94.645 63.6706ZM96.0981 63.8346C96.0981 64.7878 96.2935 65.5378 96.6841 66.0846C97.0747 66.6263 97.6216 66.8971 98.3247 66.8971C99.2362 66.8971 99.9054 66.4831 100.333 65.6549V61.7956C99.8898 60.9883 99.2257 60.5846 98.3403 60.5846C97.6372 60.5846 97.0877 60.8581 96.6919 61.4049C96.2961 61.9518 96.0981 62.7617 96.0981 63.8346ZM108.059 60.8112C107.84 60.7747 107.603 60.7565 107.348 60.7565C106.4 60.7565 105.757 61.1601 105.418 61.9674V67.9674H103.973V59.5143H105.379L105.403 60.4909C105.877 59.7357 106.549 59.3581 107.418 59.3581C107.7 59.3581 107.913 59.3945 108.059 59.4674V60.8112ZM112.747 68.1237C111.601 68.1237 110.668 67.7487 109.95 66.9987C109.231 66.2435 108.872 65.2357 108.872 63.9753V63.7096C108.872 62.8711 109.03 62.1237 109.348 61.4674C109.671 60.806 110.119 60.2904 110.692 59.9206C111.27 59.5456 111.895 59.3581 112.567 59.3581C113.666 59.3581 114.52 59.72 115.129 60.444C115.739 61.168 116.043 62.2044 116.043 63.5534V64.1549H110.317C110.338 64.9883 110.58 65.6628 111.043 66.1784C111.512 66.6888 112.106 66.944 112.825 66.944C113.335 66.944 113.767 66.8398 114.122 66.6315C114.476 66.4232 114.786 66.1471 115.051 65.8034L115.934 66.4909C115.226 67.5794 114.163 68.1237 112.747 68.1237ZM112.567 60.5456C111.984 60.5456 111.494 60.7591 111.098 61.1862C110.702 61.6081 110.458 62.2018 110.364 62.9674H114.598V62.8581C114.556 62.1237 114.359 61.556 114.004 61.1549C113.65 60.7487 113.171 60.5456 112.567 60.5456ZM122.645 65.7253C122.645 65.3346 122.497 65.0325 122.2 64.819C121.908 64.6003 121.395 64.4128 120.661 64.2565C119.931 64.1003 119.351 63.9128 118.918 63.694C118.491 63.4753 118.174 63.2148 117.965 62.9128C117.762 62.6107 117.661 62.2513 117.661 61.8346C117.661 61.1419 117.952 60.556 118.536 60.0768C119.124 59.5976 119.874 59.3581 120.786 59.3581C121.744 59.3581 122.52 59.6055 123.114 60.1003C123.713 60.595 124.012 61.2279 124.012 61.9987H122.559C122.559 61.6029 122.39 61.2617 122.051 60.9753C121.718 60.6888 121.296 60.5456 120.786 60.5456C120.26 60.5456 119.848 60.6601 119.551 60.8893C119.254 61.1185 119.106 61.418 119.106 61.7878C119.106 62.1367 119.244 62.3997 119.52 62.5768C119.796 62.7539 120.293 62.9232 121.012 63.0846C121.736 63.2461 122.322 63.4388 122.77 63.6628C123.218 63.8867 123.549 64.1575 123.762 64.4753C123.981 64.7878 124.09 65.1706 124.09 65.6237C124.09 66.3789 123.788 66.9857 123.184 67.444C122.58 67.8971 121.796 68.1237 120.833 68.1237C120.155 68.1237 119.556 68.0039 119.036 67.7643C118.515 67.5247 118.106 67.1914 117.809 66.7643C117.517 66.332 117.372 65.8659 117.372 65.3659H118.817C118.843 65.8503 119.036 66.2357 119.395 66.5221C119.76 66.8034 120.239 66.944 120.833 66.944C121.379 66.944 121.817 66.8346 122.145 66.6159C122.478 66.3919 122.645 66.095 122.645 65.7253ZM130.895 65.7253C130.895 65.3346 130.747 65.0325 130.45 64.819C130.158 64.6003 129.645 64.4128 128.911 64.2565C128.181 64.1003 127.601 63.9128 127.168 63.694C126.741 63.4753 126.424 63.2148 126.215 62.9128C126.012 62.6107 125.911 62.2513 125.911 61.8346C125.911 61.1419 126.202 60.556 126.786 60.0768C127.374 59.5976 128.124 59.3581 129.036 59.3581C129.994 59.3581 130.77 59.6055 131.364 60.1003C131.963 60.595 132.262 61.2279 132.262 61.9987H130.809C130.809 61.6029 130.64 61.2617 130.301 60.9753C129.968 60.6888 129.546 60.5456 129.036 60.5456C128.51 60.5456 128.098 60.6601 127.801 60.8893C127.504 61.1185 127.356 61.418 127.356 61.7878C127.356 62.1367 127.494 62.3997 127.77 62.5768C128.046 62.7539 128.543 62.9232 129.262 63.0846C129.986 63.2461 130.572 63.4388 131.02 63.6628C131.468 63.8867 131.799 64.1575 132.012 64.4753C132.231 64.7878 132.34 65.1706 132.34 65.6237C132.34 66.3789 132.038 66.9857 131.434 67.444C130.83 67.8971 130.046 68.1237 129.083 68.1237C128.405 68.1237 127.806 68.0039 127.286 67.7643C126.765 67.5247 126.356 67.1914 126.059 66.7643C125.767 66.332 125.622 65.8659 125.622 65.3659H127.067C127.093 65.8503 127.286 66.2357 127.645 66.5221C128.01 66.8034 128.489 66.944 129.083 66.944C129.629 66.944 130.067 66.8346 130.395 66.6159C130.728 66.3919 130.895 66.095 130.895 65.7253Z" fill="black"/>
<path d="M18.4705 29.5034C19.2812 29.2474 20.1985 29.0341 21.2225 28.8634C22.2892 28.6928 23.2492 28.6074 24.1025 28.6074C25.0838 28.6074 26.0225 28.7141 26.9185 28.9274C27.8572 29.0981 28.6892 29.4181 29.4145 29.8874C30.1398 30.3141 30.7158 30.9114 31.1425 31.6794C31.5692 32.4474 31.7825 33.4074 31.7825 34.5594V51.5834H37.4785C37.7345 52.0528 37.9905 52.6714 38.2465 53.4394C38.5025 54.2074 38.6305 55.0181 38.6305 55.8714C38.6305 57.4928 38.2678 58.6448 37.5425 59.3274C36.8172 60.0101 35.8998 60.3514 34.7905 60.3514H31.7825V67.9034C31.3132 67.9888 30.6092 68.0954 29.6705 68.2234C28.7318 68.3941 27.8358 68.4794 26.9825 68.4794C26.0438 68.4794 25.2118 68.4368 24.4865 68.3514C23.7612 68.2661 23.1425 68.0741 22.6305 67.7754C22.1612 67.4341 21.7985 66.9648 21.5425 66.3674C21.2865 65.7701 21.1585 64.9594 21.1585 63.9354V60.3514H5.0945C4.11317 59.8394 3.25984 59.0928 2.5345 58.1114C1.85184 57.0874 1.5105 55.8501 1.5105 54.3994C1.5105 53.5888 1.61717 52.6928 1.8305 51.7114C2.04384 50.7301 2.4065 49.8768 2.9185 49.1514L18.4705 29.5034ZM21.7345 39.5514H21.5425L13.0305 51.5834H21.7345V39.5514Z" fill="black"/>
</svg>
